<svg width="44" height="44" viewBox="0 0 44 44" fill="none" xmlns="http://www.w3.org/2000/svg">
<circle cx="22" cy="22" r="21.5" stroke="#FFB400"/>
<path d="M31.8016 7.31126L16.1552 11.0578C16.0474 11.0835 15.9494 11.14 15.8732 11.2206L4.80548 22.8975C4.72229 22.9846 4.6688 23.0959 4.65264 23.2154C4.63647 23.3349 4.65847 23.4565 4.71549 23.5629C4.77251 23.6692 4.86162 23.7549 4.97011 23.8076C5.07859 23.8603 5.20088 23.8774 5.31951 23.8564L13.3489 22.5117L16.5311 28.0233C16.1375 28.2506 15.8504 28.6252 15.7331 29.0647C15.6158 29.5043 15.6778 29.9727 15.9054 30.3671C16.1331 30.7615 16.5079 31.0494 16.9472 31.1676C17.3865 31.2857 17.8544 31.2245 18.2481 30.9972L18.3272 30.9515C19.5238 32.4475 21.2155 33.4657 23.0958 33.8217C24.976 34.1776 26.9203 33.8476 28.5763 32.8915C30.2322 31.9355 31.4901 30.4166 32.122 28.6103C32.7539 26.804 32.718 24.8298 32.0207 23.0456L32.0998 22.9999C32.4934 22.7726 32.7805 22.398 32.8978 21.9585C33.0151 21.5189 32.9532 21.0504 32.7255 20.6561C32.4978 20.2617 32.1231 19.9738 31.6837 19.8556C31.2444 19.7374 30.7765 19.7987 30.3829 20.026L27.2007 14.5143L28.756 12.6383L29.5516 14.0162C29.3671 14.2345 29.2402 14.4956 29.1824 14.7757C29.1246 15.0558 29.1377 15.3461 29.2205 15.6201C29.3033 15.8941 29.4532 16.1431 29.6565 16.3445C29.8599 16.5459 30.1103 16.6934 30.3848 16.7734L30.4394 17.7133C30.4438 17.7885 30.463 17.862 30.4957 17.9298C30.5285 17.9976 30.5743 18.0582 30.6305 18.1083C30.6867 18.1584 30.7522 18.197 30.8232 18.2218C30.8942 18.2466 30.9694 18.2572 31.0445 18.2529C31.1195 18.2486 31.193 18.2296 31.2606 18.1969C31.3283 18.1641 31.3888 18.1184 31.4388 18.0623C31.4887 18.0061 31.5271 17.9406 31.5518 17.8696C31.5765 17.7985 31.5869 17.7233 31.5825 17.6481L31.5336 16.7181C31.665 16.6743 31.7862 16.6043 31.8898 16.5125L32.6872 17.0368C32.8142 17.1203 32.9691 17.15 33.1177 17.1194C33.2664 17.0887 33.3967 17.0001 33.48 16.8732C33.5632 16.7462 33.5927 16.5913 33.5618 16.4424C33.5309 16.2936 33.4422 16.163 33.3152 16.0794L32.5285 15.5622C32.6009 15.2817 32.6012 14.9873 32.5292 14.7064C32.4573 14.4255 32.3155 14.1674 32.117 13.956C31.9186 13.7446 31.67 13.5869 31.3944 13.4975C31.1188 13.4082 30.8252 13.3901 30.541 13.445L29.5337 11.7003L32.3914 8.25282C32.4689 8.1606 32.5153 8.04616 32.5239 7.92586C32.5325 7.80556 32.5029 7.68555 32.4393 7.58299C32.3757 7.48044 32.2813 7.40057 32.1698 7.35481C32.0582 7.30906 31.9351 7.29975 31.818 7.32823L31.8016 7.31126ZM17.6757 30.0059C17.5445 30.0817 17.3885 30.1021 17.2421 30.0627C17.0957 30.0233 16.9708 29.9273 16.8949 29.7959C16.819 29.6644 16.7983 29.5083 16.8374 29.3617C16.8765 29.2152 16.9722 29.0904 17.1034 29.0146L17.6757 30.0059ZM30.5381 22.5798C31.4488 24.1573 31.6968 26.0312 31.2275 27.7894C30.7582 29.5476 29.61 31.046 28.0356 31.955C26.4611 32.864 24.5894 33.1092 22.8321 32.6365C21.0748 32.1639 19.5759 31.0121 18.6651 29.4347L18.3561 28.8994C20.7838 29.0091 23.1912 28.4222 25.2947 27.2078C27.3982 25.9933 29.1102 24.2019 30.229 22.0445L30.5381 22.5798ZM29.5365 20.845C28.5431 23.1026 26.8569 24.9839 24.7223 26.2163C22.5877 27.4487 20.1154 27.9683 17.6636 27.6999L17.4976 27.4124C19.9254 27.5222 22.3328 26.9353 24.4363 25.7208C26.5397 24.5064 28.2517 22.7149 29.3705 20.5576L29.5365 20.845ZM28.678 19.3581C27.6846 21.6157 25.9984 23.4969 23.8638 24.7293C21.7292 25.9618 19.2569 26.4814 16.8051 26.2129L14.5501 22.3072L21.5497 21.121C21.6855 21.0983 21.8084 21.0273 21.896 20.921L26.4231 15.4524L28.678 19.3581ZM31.7361 21.2273C31.8119 21.3588 31.8326 21.5149 31.7935 21.6614C31.7544 21.808 31.6587 21.9328 31.5275 22.0086L30.9552 21.0173C31.0864 20.9415 31.2424 20.9211 31.3888 20.9605C31.5352 20.9999 31.6602 21.0958 31.7361 21.2273ZM31.1394 15.624C31.0416 15.6805 30.9291 15.7066 30.8163 15.6991C30.7035 15.6916 30.5954 15.6508 30.5057 15.5819C30.416 15.5129 30.3486 15.4189 30.3122 15.3118C30.2758 15.2046 30.2719 15.0891 30.3011 14.9798C30.3302 14.8706 30.3911 14.7725 30.4761 14.6979C30.561 14.6234 30.6661 14.5758 30.7782 14.5611C30.8902 14.5464 31.0042 14.5654 31.1056 14.6155C31.207 14.6656 31.2914 14.7447 31.3479 14.8427C31.4238 14.9742 31.4445 15.1303 31.4054 15.2768C31.3663 15.4234 31.2706 15.5482 31.1394 15.624ZM28.4798 11.2117L18.3852 15.0572C18.2422 15.1126 18.1272 15.2226 18.0654 15.363C18.0035 15.5034 18 15.6628 18.0556 15.806C18.1112 15.9492 18.2212 16.0645 18.3616 16.1266C18.502 16.1887 18.6612 16.1925 18.8041 16.1371L26.98 12.9896L21.1476 20.0247L6.82986 22.4623L16.589 12.129L30.4032 8.81917L28.4798 11.2117Z" fill="#FFB400"/>
<path d="M25.3373 29.9303L25.0754 29.4767C25.006 29.3564 24.8915 29.2686 24.7574 29.2326C24.6232 29.1967 24.4802 29.2155 24.3599 29.285C24.2396 29.3544 24.1518 29.4688 24.1158 29.603C24.0799 29.7372 24.0987 29.8802 24.1682 30.0005L24.4301 30.4541C24.7079 30.9354 25.1655 31.2865 25.7023 31.4304C26.2391 31.5742 26.811 31.4989 27.2922 31.221C27.7735 30.9432 28.1246 30.4856 28.2684 29.9488C28.4123 29.4121 28.337 28.8401 28.0591 28.3589L27.7972 27.9053C27.7278 27.785 27.6133 27.6972 27.4792 27.6612C27.345 27.6253 27.202 27.6441 27.0817 27.7135C26.9614 27.783 26.8736 27.8974 26.8376 28.0316C26.8017 28.1658 26.8205 28.3088 26.8899 28.4291L27.1519 28.8827C27.2908 29.1233 27.3284 29.4093 27.2565 29.6777C27.1846 29.946 27.009 30.1749 26.7684 30.3138C26.5278 30.4527 26.2418 30.4904 25.9734 30.4184C25.7051 30.3465 25.4762 30.171 25.3373 29.9303Z" fill="#FFB400"/>
</svg>
