<svg width="44" height="44" viewBox="0 0 44 44" fill="none" xmlns="http://www.w3.org/2000/svg">
<circle cx="22" cy="22" r="21.5" stroke="#FFB400"/>
<path d="M12.2596 21.8823L12.9401 21.4895L13.7258 22.8504L10.5504 24.6837C10.3712 24.7872 10.2694 24.9881 10.2911 25.1933C10.3141 25.4007 10.4559 25.5729 10.6534 25.6374C12.5077 26.2301 13.5946 28.1127 13.1807 30.0149C13.1378 30.2181 13.216 30.427 13.3842 30.5507C13.5511 30.6721 13.7759 30.6844 13.9551 30.5809L30.9663 20.7595C32.5926 19.8206 33.1515 17.7348 32.2126 16.1085C31.2736 14.4822 29.1878 13.9234 27.5616 14.8623L18.2621 20.2313L17.4764 18.8704L29.2708 12.0609C29.45 11.9575 29.5518 11.7566 29.5301 11.5514C29.5071 11.3439 29.3653 11.1717 29.1678 11.1073C27.3135 10.5145 26.2266 8.63196 26.6405 6.72971C26.6834 6.52648 26.6052 6.31763 26.437 6.19395C26.3549 6.13439 26.2573 6.09984 26.156 6.09447C26.0547 6.0891 25.954 6.11314 25.8661 6.16369L8.85487 15.9851C7.22859 16.924 6.66971 19.0098 7.60864 20.6361C8.54757 22.2624 10.6334 22.8213 12.2596 21.8823ZM28.0854 15.7695C29.2104 15.12 30.6558 15.5073 31.3053 16.6323C31.9548 17.7573 31.5675 19.2027 30.4425 19.8522L14.3182 29.1616C14.311 28.3356 14.0902 27.5254 13.6771 26.8099C13.2641 26.0945 12.6729 25.4982 11.961 25.0789L14.2496 23.7576L15.2972 25.5722C15.3459 25.6564 15.417 25.7255 15.5027 25.7715C15.5883 25.8176 15.6851 25.839 15.7822 25.8331C15.8793 25.8273 15.9729 25.7946 16.0524 25.7385C16.132 25.6825 16.1943 25.6055 16.2326 25.516L17.107 23.4688L19.3173 23.7351C19.4307 23.7482 19.5466 23.7237 19.6418 23.6687C19.7621 23.5992 19.8499 23.4848 19.8859 23.3506C19.9218 23.2164 19.903 23.0734 19.8335 22.9531L18.7859 21.1386L28.0854 15.7695ZM15.6807 24.1411L12.5378 18.6975L15.2596 17.1261L18.4025 22.5697L16.8423 22.3817C16.7253 22.3676 16.613 22.3931 16.5178 22.4481C16.4225 22.5031 16.3443 22.5876 16.298 22.696L15.6807 24.1411ZM9.37868 16.8924L25.503 7.58298C25.5102 8.40906 25.731 9.21923 26.1441 9.93467C26.5571 10.6501 27.1483 11.2464 27.8602 11.6657L16.9526 17.9632L15.905 16.1486C15.7609 15.8991 15.4389 15.8129 15.1894 15.9569L11.5604 18.0521C11.3109 18.1962 11.2246 18.5182 11.3686 18.7677L12.4163 20.5822L11.7358 20.9751C10.6108 21.6246 9.16543 21.2373 8.5159 20.1123C7.86638 18.9873 8.25367 17.5419 9.37868 16.8924ZM34.8179 20.7102C34.7358 20.6506 34.6383 20.6161 34.537 20.6107C34.4357 20.6053 34.335 20.6294 34.247 20.6799L17.2358 30.5013C15.6095 31.4403 15.0507 33.5261 15.9896 35.1523C16.9285 36.7786 19.0143 37.3375 20.6406 36.3986L37.6518 26.5771C37.831 26.4737 37.9327 26.2728 37.911 26.0676C37.888 25.8601 37.7463 25.6879 37.5488 25.6235C35.6945 25.0308 34.6076 23.1482 35.0214 21.2459C35.0644 21.0427 34.9861 20.8339 34.8179 20.7102ZM36.2411 26.1819L20.1168 35.4913C18.9918 36.1408 17.5464 35.7535 16.8969 34.6285C16.2473 33.5035 16.6346 32.0581 17.7596 31.4086L33.884 22.0992C33.8911 22.9253 34.112 23.7355 34.525 24.4509C34.9381 25.1663 35.5293 25.7627 36.2411 26.1819Z" fill="#FFB400"/>
</svg>
