<svg width="44" height="44" viewBox="0 0 44 44" fill="none" xmlns="http://www.w3.org/2000/svg">
<circle cx="22" cy="22" r="21.5" stroke="#FFB400"/>
<g clip-path="url(#clip0_1_353)">
<path d="M27.3037 25.7001L27.3036 25.7002L20.3943 32.6096L19.8296 36.7234L21.9258 34.6272C23.2895 33.2592 24.1595 31.4765 24.3988 29.5598C24.4072 29.4924 24.4287 29.4273 24.4621 29.3682C24.4956 29.3091 24.5404 29.2572 24.594 29.2154C24.6475 29.1736 24.7088 29.1428 24.7743 29.1247C24.8397 29.1066 24.9081 29.1015 24.9755 29.1098C25.0429 29.1182 25.1081 29.1397 25.1671 29.1732C25.2262 29.2067 25.2782 29.2514 25.32 29.305C25.3617 29.3586 25.3926 29.4198 25.4107 29.4853C25.4288 29.5507 25.4338 29.6191 25.4255 29.6865C25.1626 31.822 24.1797 33.8367 22.6576 35.3588L19.4737 38.5427C19.3167 38.6997 19.0766 38.7389 18.878 38.6404L18.8779 38.6404C18.7809 38.5921 18.7014 38.5147 18.6507 38.4189C18.6 38.3231 18.5806 38.2138 18.5952 38.1064L18.5952 38.1064L19.1834 33.8205L18.5509 34.4529C18.3489 34.6549 18.0215 34.6553 17.8192 34.4529L11.0359 27.6697L10.3344 29.2515L14.8015 33.7186L15.4978 33.4102C15.4979 33.4101 15.498 33.4101 15.4981 33.41C15.5602 33.3819 15.6273 33.3663 15.6955 33.3642C15.7638 33.362 15.8318 33.3734 15.8957 33.3978C15.9595 33.4221 16.0179 33.4588 16.0675 33.5058C16.1171 33.5528 16.1569 33.6091 16.1846 33.6716C16.2123 33.7341 16.2273 33.8014 16.2289 33.8697C16.2304 33.938 16.2184 34.006 16.1935 34.0696C16.1686 34.1332 16.1314 34.1913 16.084 34.2405C16.0366 34.2896 15.9799 34.3289 15.9173 34.356C15.9172 34.356 15.9172 34.3561 15.9171 34.3561L14.8968 34.8085C14.701 34.8954 14.4724 34.8528 14.3212 34.7016L9.35171 29.7321C9.20053 29.5809 9.15755 29.352 9.24505 29.1561L27.3037 25.7001ZM27.3037 25.7001C29.8556 23.1404 31.4803 19.8023 31.9203 16.2147L31.9203 16.2147L32.2831 13.2162L32.2335 13.21L32.2831 13.216L32.2831 13.2161C32.307 13.0226 32.2864 12.8261 32.2228 12.6418C32.1591 12.4575 32.0541 12.2902 31.9158 12.1527M27.3037 25.7001L9.24511 29.156L10.2524 26.8849L9.61634 26.2488C9.41401 26.0465 9.41437 25.7191 9.61634 25.5172L10.2488 24.8847L5.96292 25.4728L5.96281 25.4728C5.85556 25.4873 5.74646 25.4678 5.65085 25.4171C5.55524 25.3664 5.47794 25.287 5.42979 25.19C5.38165 25.0931 5.36508 24.9835 5.38243 24.8767C5.39978 24.7699 5.45016 24.6711 5.52651 24.5944L5.52659 24.5943L8.71045 21.4105L8.71052 21.4104C10.2075 19.9196 12.1479 18.9549 14.2401 18.6614C14.3076 18.6513 14.3765 18.6546 14.4428 18.6713C14.5092 18.688 14.5717 18.7177 14.6265 18.7587C14.6814 18.7997 14.7276 18.8512 14.7624 18.9102C14.7972 18.9692 14.8199 19.0345 14.8293 19.1024C14.8386 19.1702 14.8344 19.2393 14.8169 19.3055C14.7994 19.3717 14.7689 19.4338 14.7271 19.4881C14.6854 19.5424 14.6334 19.588 14.5739 19.622C14.5146 19.656 14.4491 19.6779 14.3813 19.6864C12.5122 19.9486 10.7789 20.8105 9.44179 22.1425L7.34557 24.2387L11.4594 23.6741L18.3688 16.7647L18.3688 16.7647C20.9287 14.2127 24.2671 12.5882 27.8549 12.1487L27.8549 12.1487L30.8526 11.7856L30.8526 11.7856C31.2472 11.7379 31.6348 11.8717 31.9158 12.1527M31.9158 12.1527C31.9158 12.1528 31.9159 12.1528 31.9159 12.1528L31.8805 12.1881L31.9158 12.1527C31.9158 12.1527 31.9158 12.1527 31.9158 12.1527ZM25.5796 13.6686L29.7868 17.8758C29.8349 17.9239 29.873 17.9809 29.899 18.0437C29.925 18.1065 29.9384 18.1737 29.9384 18.2417C29.9384 18.3096 29.925 18.3769 29.899 18.4397C29.873 18.5024 29.8349 18.5595 29.7868 18.6075C29.7388 18.6556 29.6818 18.6937 29.619 18.7197C29.5562 18.7457 29.489 18.7591 29.421 18.7591C29.3531 18.7591 29.2858 18.7457 29.223 18.7197C29.1603 18.6937 29.1032 18.6556 29.0552 18.6075L24.4839 14.0362C22.4743 14.7924 20.628 15.9688 19.1001 17.4967L10.7135 25.8833L18.1854 33.3551L26.5719 24.968C28.9605 22.5722 30.4811 19.4477 30.8927 16.0897L25.5796 13.6686ZM25.5796 13.6686C26.3647 13.4393 27.1672 13.2747 27.9793 13.1763L27.9793 13.1763L30.9765 12.8129C31.082 12.8003 31.1517 12.8519 31.1842 12.8845C31.2168 12.917 31.2683 12.9867 31.2558 13.0915L30.8927 16.0896L25.5796 13.6686Z" fill="#FFB400" stroke="#FFB400" stroke-width="0.1"/>
<path d="M25.1474 18.9218C23.8629 17.6373 21.7733 17.6373 20.4888 18.9218C19.2025 20.2081 19.2008 22.2993 20.4854 23.5838C21.7715 24.8699 23.8645 24.8702 25.1508 23.5838C26.4354 22.2993 26.4334 20.2078 25.1474 18.9218ZM21.2173 22.8518C20.3363 21.9707 20.3377 20.5362 21.2205 19.6535C21.6446 19.2294 22.2198 18.9911 22.8197 18.9911C23.4195 18.9911 23.9947 19.2294 24.4188 19.6535C24.843 20.0776 25.0812 20.6529 25.0812 21.2527C25.0812 21.8525 24.843 22.4277 24.4189 22.8518C23.994 23.2757 23.4183 23.5138 22.8181 23.5138C22.2179 23.5138 21.6422 23.2757 21.2173 22.8518Z" fill="#FFB400" stroke="#FFB400" stroke-width="0.1"/>
</g>
<defs>
<clipPath id="clip0_1_353">
<rect width="28.2857" height="28.2857" fill="white" transform="translate(22 2) rotate(45)"/>
</clipPath>
</defs>
</svg>
